<svg width="21" height="18" viewBox="0 0 21 18" fill="none" xmlns="http://www.w3.org/2000/svg">
<path d="M19.1598 2.00017C18.0998 0.937373 16.6946 0.288706 15.1981 0.171335C13.7017 0.0539653 12.2126 0.475631 10.9998 1.36017C9.72744 0.413803 8.14378 -0.0153233 6.56771 0.159203C4.99164 0.333729 3.54023 1.09894 2.50576 2.30075C1.47129 3.50256 0.93061 5.05169 0.992588 6.63618C1.05457 8.22067 1.71461 9.72283 2.83979 10.8402L9.04979 17.0602C9.56981 17.5719 10.2702 17.8588 10.9998 17.8588C11.7294 17.8588 12.4298 17.5719 12.9498 17.0602L19.1598 10.8402C20.3274 9.66543 20.9827 8.07644 20.9827 6.42017C20.9827 4.76389 20.3274 3.1749 19.1598 2.00017ZM17.7498 9.46017L11.5398 15.6702C11.4691 15.7415 11.385 15.7982 11.2923 15.8368C11.1996 15.8755 11.1002 15.8954 10.9998 15.8954C10.8994 15.8954 10.7999 15.8755 10.7072 15.8368C10.6146 15.7982 10.5305 15.7415 10.4598 15.6702L4.24979 9.43017C3.46555 8.62851 3.0264 7.55163 3.0264 6.43017C3.0264 5.3087 3.46555 4.23182 4.24979 3.43017C5.04894 2.64115 6.12676 2.19873 7.24979 2.19873C8.37281 2.19873 9.45063 2.64115 10.2498 3.43017C10.3428 3.52389 10.4534 3.59829 10.5752 3.64906C10.6971 3.69983 10.8278 3.72596 10.9598 3.72596C11.0918 3.72596 11.2225 3.69983 11.3444 3.64906C11.4662 3.59829 11.5768 3.52389 11.6698 3.43017C12.4689 2.64115 13.5468 2.19873 14.6698 2.19873C15.7928 2.19873 16.8706 2.64115 17.6698 3.43017C18.4648 4.22132 18.9184 5.29236 18.9333 6.41385C18.9483 7.53535 18.5234 8.6181 17.7498 9.43017V9.46017Z" fill="#036EFF"/>
</svg>
