<svg width="21" height="20" viewBox="0 0 21 20" fill="none" xmlns="http://www.w3.org/2000/svg">
<path d="M6.99987 9C6.80208 9 6.60875 9.05865 6.4443 9.16853C6.27985 9.27841 6.15167 9.43459 6.07599 9.61732C6.0003 9.80004 5.9805 10.0011 6.01908 10.1951C6.05767 10.3891 6.15291 10.5673 6.29276 10.7071C6.43261 10.847 6.61079 10.9422 6.80478 10.9808C6.99876 11.0194 7.19982 10.9996 7.38255 10.9239C7.56528 10.8482 7.72145 10.72 7.83134 10.5556C7.94122 10.3911 7.99987 10.1978 7.99987 10C7.99987 9.73478 7.89451 9.48043 7.70697 9.29289C7.51944 9.10536 7.26508 9 6.99987 9ZM10.9999 9C10.8021 9 10.6087 9.05865 10.4443 9.16853C10.2798 9.27841 10.1517 9.43459 10.076 9.61732C10.0003 9.80004 9.9805 10.0011 10.0191 10.1951C10.0577 10.3891 10.1529 10.5673 10.2928 10.7071C10.4326 10.847 10.6108 10.9422 10.8048 10.9808C10.9988 11.0194 11.1998 10.9996 11.3826 10.9239C11.5653 10.8482 11.7215 10.72 11.8313 10.5556C11.9412 10.3911 11.9999 10.1978 11.9999 10C11.9999 9.73478 11.8945 9.48043 11.707 9.29289C11.5194 9.10536 11.2651 9 10.9999 9ZM14.9999 9C14.8021 9 14.6087 9.05865 14.4443 9.16853C14.2798 9.27841 14.1517 9.43459 14.076 9.61732C14.0003 9.80004 13.9805 10.0011 14.0191 10.1951C14.0577 10.3891 14.1529 10.5673 14.2928 10.7071C14.4326 10.847 14.6108 10.9422 14.8048 10.9808C14.9988 11.0194 15.1998 10.9996 15.3825 10.9239C15.5653 10.8482 15.7215 10.72 15.8313 10.5556C15.9412 10.3911 15.9999 10.1978 15.9999 10C15.9999 9.73478 15.8945 9.48043 15.707 9.29289C15.5194 9.10536 15.2651 9 14.9999 9ZM10.9999 0C9.68665 0 8.38629 0.258658 7.17303 0.761205C5.95978 1.26375 4.85738 2.00035 3.9288 2.92893C2.05343 4.8043 0.999866 7.34784 0.999866 10C0.991124 12.3091 1.79066 14.5485 3.25987 16.33L1.25987 18.33C1.12111 18.4706 1.02711 18.6492 0.989738 18.8432C0.952364 19.0372 0.973287 19.2379 1.04987 19.42C1.13292 19.5999 1.26757 19.7511 1.43671 19.8544C1.60586 19.9577 1.80187 20.0083 1.99987 20H10.9999C13.652 20 16.1956 18.9464 18.0709 17.0711C19.9463 15.1957 20.9999 12.6522 20.9999 10C20.9999 7.34784 19.9463 4.8043 18.0709 2.92893C16.1956 1.05357 13.652 0 10.9999 0ZM10.9999 18H4.40987L5.33987 17.07C5.43435 16.9774 5.50952 16.8669 5.56102 16.7451C5.61252 16.6232 5.63932 16.4923 5.63987 16.36C5.63611 16.0962 5.52828 15.8446 5.33987 15.66C4.03045 14.352 3.21504 12.6305 3.03256 10.7888C2.85007 8.94705 3.31181 7.09901 4.33909 5.55952C5.36638 4.02004 6.89566 2.88436 8.66638 2.34597C10.4371 1.80759 12.3397 1.8998 14.0501 2.60691C15.7604 3.31402 17.1727 4.59227 18.0463 6.22389C18.9199 7.85551 19.2007 9.73954 18.841 11.555C18.4813 13.3705 17.5032 15.005 16.0734 16.1802C14.6436 17.3554 12.8506 17.9985 10.9999 18Z" fill="#036EFF"/>
</svg>
