<svg width="22" height="22" viewBox="0 0 22 22" fill="none" xmlns="http://www.w3.org/2000/svg">
<circle cx="11" cy="11" r="11" fill="#FFBC39" fill-opacity="0.9"/>
<path d="M16.5917 8.00822C16.5142 7.93011 16.4221 7.86811 16.3205 7.82581C16.219 7.7835 16.11 7.76172 16 7.76172C15.89 7.76172 15.7811 7.7835 15.6796 7.82581C15.578 7.86811 15.4858 7.93011 15.4084 8.00822L9.20004 14.2249L6.59171 11.6082C6.51127 11.5305 6.41632 11.4694 6.31227 11.4284C6.20823 11.3874 6.09713 11.3673 5.98531 11.3692C5.87349 11.3712 5.76315 11.3951 5.66058 11.4397C5.55802 11.4843 5.46524 11.5486 5.38754 11.6291C5.30984 11.7095 5.24875 11.8044 5.20774 11.9085C5.16674 12.0125 5.14663 12.1236 5.14856 12.2354C5.1505 12.3473 5.17444 12.4576 5.21902 12.5602C5.2636 12.6627 5.32794 12.7555 5.40837 12.8332L8.60837 16.0332C8.68584 16.1113 8.77801 16.1733 8.87956 16.2156C8.98111 16.2579 9.09003 16.2797 9.20004 16.2797C9.31005 16.2797 9.41897 16.2579 9.52052 16.2156C9.62207 16.1733 9.71424 16.1113 9.79171 16.0332L16.5917 9.23322C16.6763 9.15518 16.7438 9.06047 16.79 8.95506C16.8361 8.84964 16.86 8.7358 16.86 8.62072C16.86 8.50563 16.8361 8.39179 16.79 8.28638C16.7438 8.18096 16.6763 8.08625 16.5917 8.00822Z" fill="black"/>
</svg>
