<svg width="17" height="17" viewBox="0 0 17 17" fill="none" xmlns="http://www.w3.org/2000/svg">
<circle cx="8.5" cy="8.5" r="8.5" fill="#FFBC39"/>
<path d="M12.8206 6.18755C12.7607 6.12719 12.6895 6.07929 12.611 6.04659C12.5325 6.0139 12.4484 5.99707 12.3634 5.99707C12.2783 5.99707 12.1942 6.0139 12.1157 6.04659C12.0372 6.07929 11.966 6.12719 11.9062 6.18755L7.10881 10.9913L5.09328 8.96936C5.03113 8.90932 4.95776 8.86211 4.87736 8.83043C4.79696 8.79875 4.7111 8.78321 4.6247 8.7847C4.5383 8.7862 4.45303 8.8047 4.37378 8.83914C4.29452 8.87359 4.22283 8.92331 4.16279 8.98546C4.10275 9.04762 4.05554 9.12099 4.02385 9.20139C3.99217 9.28179 3.97663 9.36764 3.97813 9.45404C3.97962 9.54045 3.99812 9.62571 4.03257 9.70497C4.06701 9.78422 4.11673 9.85592 4.17889 9.91596L6.65161 12.3887C6.71148 12.449 6.7827 12.4969 6.86117 12.5296C6.93964 12.5623 7.0238 12.5792 7.10881 12.5792C7.19382 12.5792 7.27799 12.5623 7.35646 12.5296C7.43493 12.4969 7.50615 12.449 7.56601 12.3887L12.8206 7.13414C12.8859 7.07384 12.9381 7.00065 12.9738 6.91919C13.0094 6.83774 13.0279 6.74977 13.0279 6.66084C13.0279 6.57191 13.0094 6.48395 12.9738 6.40249C12.9381 6.32103 12.8859 6.24785 12.8206 6.18755Z" fill="black"/>
</svg>
