<svg width="22" height="22" viewBox="0 0 22 22" fill="none" xmlns="http://www.w3.org/2000/svg">
<circle cx="11" cy="11" r="11" fill="#D9D9D9"/>
<path d="M12.1749 11.0005L15.7583 7.42548C15.9152 7.26856 16.0034 7.05573 16.0034 6.83381C16.0034 6.6119 15.9152 6.39907 15.7583 6.24215C15.6014 6.08523 15.3885 5.99707 15.1666 5.99707C14.9447 5.99707 14.7319 6.08523 14.575 6.24215L10.9999 9.82548L7.42495 6.24215C7.26803 6.08523 7.0552 5.99707 6.83328 5.99707C6.61136 5.99707 6.39854 6.08523 6.24162 6.24215C6.0847 6.39907 5.99654 6.6119 5.99654 6.83381C5.99654 7.05573 6.0847 7.26856 6.24162 7.42548L9.82495 11.0005L6.24162 14.5755C6.16351 14.653 6.10151 14.7451 6.05921 14.8467C6.0169 14.9482 5.99512 15.0571 5.99512 15.1671C5.99512 15.2772 6.0169 15.3861 6.05921 15.4876C6.10151 15.5892 6.16351 15.6813 6.24162 15.7588C6.31908 15.8369 6.41125 15.8989 6.5128 15.9412C6.61435 15.9835 6.72327 16.0053 6.83328 16.0053C6.94329 16.0053 7.05221 15.9835 7.15376 15.9412C7.25531 15.8989 7.34748 15.8369 7.42495 15.7588L10.9999 12.1755L14.575 15.7588C14.6524 15.8369 14.7446 15.8989 14.8461 15.9412C14.9477 15.9835 15.0566 16.0053 15.1666 16.0053C15.2766 16.0053 15.3855 15.9835 15.4871 15.9412C15.5886 15.8989 15.6808 15.8369 15.7583 15.7588C15.8364 15.6813 15.8984 15.5892 15.9407 15.4876C15.983 15.3861 16.0048 15.2772 16.0048 15.1671C16.0048 15.0571 15.983 14.9482 15.9407 14.8467C15.8984 14.7451 15.8364 14.653 15.7583 14.5755L12.1749 11.0005Z" fill="black"/>
</svg>
