<svg width="40" height="40" viewBox="0 0 40 40" fill="none" xmlns="http://www.w3.org/2000/svg">
<circle cx="20" cy="20" r="20" fill="#FFBC39"/>
<path fill-rule="evenodd" clip-rule="evenodd" d="M19.4498 10.0084C19.4068 10.0162 19.1607 10.0434 18.9029 10.0688C18.2503 10.1333 17.99 10.2563 17.8311 10.5754C17.7936 10.6506 17.6421 11.0572 17.4944 11.479L17.2259 12.246L16.8345 12.4053L16.4432 12.5645L15.6613 12.1917C14.5317 11.653 14.4277 11.6528 13.7534 12.1878C13.0316 12.7604 11.9898 13.8844 11.833 14.2597C11.8005 14.3374 11.774 14.4934 11.774 14.6063C11.774 14.7848 11.8245 14.919 12.162 15.6361L12.55 16.4607L12.3918 16.8495L12.2336 17.2383L11.4666 17.5073C10.3883 17.8856 10.3311 17.9195 10.1781 18.2712C9.94062 18.8172 9.94062 21.1617 10.1781 21.7078C10.3311 22.0595 10.3901 22.0945 11.4672 22.4734L12.2346 22.7433L12.3933 23.1332L12.552 23.523L12.177 24.3051C11.6386 25.428 11.6385 25.5365 12.1754 26.2132C12.5782 26.721 13.2456 27.3883 13.7534 27.7911C14.4301 28.3281 14.5386 28.328 15.6615 27.7895L16.4436 27.4145L16.8334 27.5733L17.2232 27.7319L17.4932 28.4994C17.872 29.5765 17.907 29.6354 18.2588 29.7885C18.8077 30.0272 21.1465 30.0272 21.6954 29.7885C22.0475 29.6353 22.0834 29.5749 22.4598 28.4999L22.7284 27.733L23.1195 27.5738L23.5107 27.4145L24.2927 27.7895C25.4157 28.328 25.5241 28.3281 26.2009 27.7911C26.7086 27.3883 27.376 26.721 27.7788 26.2132C28.3157 25.5365 28.3157 25.428 27.7772 24.3051L27.4022 23.523L27.5609 23.1332L27.7196 22.7433L28.487 22.4734C29.5641 22.0945 29.6231 22.0595 29.7761 21.7078C30.0136 21.1617 30.0136 18.8172 29.7761 18.2712C29.6231 17.9195 29.5659 17.8856 28.4876 17.5073L27.7207 17.2383L27.5624 16.8495L27.4042 16.4607L27.7922 15.6361C28.3209 14.5127 28.3197 14.4405 27.7623 13.7434C27.1648 12.9961 26.0059 11.9393 25.6581 11.8245C25.3655 11.728 25.1356 11.7898 24.2929 12.1917L23.5111 12.5645L23.1197 12.4053L22.7284 12.246L22.4598 11.479C22.3121 11.0572 22.1606 10.6506 22.1231 10.5754C21.9761 10.2802 21.7402 10.1528 21.2076 10.0808C20.8304 10.0299 19.6095 9.97963 19.4498 10.0084ZM20.5435 11.7324L20.7388 11.7559L20.9887 12.4645C21.2749 13.276 21.3149 13.3661 21.4562 13.5183C21.585 13.6571 21.69 13.712 22.1097 13.8602C22.2937 13.9251 22.6379 14.0671 22.8744 14.1757C23.4868 14.4567 23.5532 14.449 24.5255 13.9831L25.2654 13.6285L25.5484 13.8819C25.7041 14.0211 25.946 14.2631 26.086 14.4195L26.3405 14.704L25.9848 15.4424C25.5153 16.4172 25.5084 16.4778 25.7979 17.105C25.9103 17.3487 26.0505 17.6894 26.1095 17.8621C26.2442 18.2571 26.3091 18.3812 26.4482 18.5104C26.6005 18.6517 26.6907 18.6917 27.5024 18.9779L28.2113 19.2278L28.2348 19.3992C28.2652 19.6206 28.2652 20.3584 28.2348 20.5797L28.2113 20.7512L27.5024 21.0011C26.6907 21.2872 26.6005 21.3272 26.4482 21.4685C26.3091 21.5978 26.2442 21.7218 26.1095 22.1169C26.0505 22.2895 25.9103 22.6303 25.7979 22.8739C25.5087 23.5006 25.5155 23.5612 25.9835 24.5379L26.338 25.2778L26.0847 25.5608C25.9454 25.7164 25.7042 25.9576 25.5488 26.0968L25.2661 26.3497L24.4868 25.9822C23.5129 25.5227 23.4897 25.5203 22.8521 25.8146C22.6136 25.9246 22.2772 26.0629 22.1045 26.1218C21.7095 26.2566 21.5854 26.3214 21.4562 26.4606C21.3149 26.6128 21.2749 26.703 20.9887 27.5147L20.7388 28.2236L20.5673 28.2472C20.346 28.2776 19.6082 28.2776 19.3869 28.2472L19.2154 28.2236L18.9655 27.5147C18.6793 26.703 18.6393 26.6128 18.498 26.4606C18.3688 26.3214 18.2448 26.2566 17.8497 26.1218C17.677 26.0629 17.3406 25.9246 17.1021 25.8146C16.4645 25.5203 16.4413 25.5227 15.4674 25.9822L14.6881 26.3497L14.4054 26.0968C14.25 25.9576 14.0088 25.7164 13.8695 25.5608L13.6162 25.2778L13.9707 24.5379C14.4388 23.5612 14.4455 23.5006 14.1563 22.8739C14.0439 22.6303 13.9037 22.2895 13.8448 22.1169C13.71 21.7218 13.6452 21.5978 13.506 21.4685C13.3538 21.3272 13.2636 21.2872 12.4518 21.0011L11.743 20.7512L11.7194 20.5797C11.689 20.3581 11.689 19.6206 11.7195 19.3984L11.7431 19.2261L12.2371 19.0546C13.5845 18.5869 13.6019 18.5739 13.8448 17.8621C13.9037 17.6894 14.0439 17.3487 14.1563 17.105C14.4458 16.4778 14.4389 16.4172 13.9694 15.4424L13.6137 14.704L13.8682 14.4195C14.0082 14.2631 14.2502 14.0211 14.4058 13.8819L14.6888 13.6285L15.4287 13.9831C16.401 14.449 16.4674 14.4567 17.0798 14.1757C17.3164 14.0671 17.6605 13.9251 17.8445 13.8602C18.2642 13.712 18.3692 13.6571 18.498 13.5183C18.6396 13.3659 18.6796 13.2753 18.9655 12.4622L19.2154 11.7514L19.3521 11.7364C19.5887 11.7104 20.3398 11.7079 20.5435 11.7324ZM19.5348 15.8524C17.6899 16.0473 16.2093 17.556 16.0383 19.4154C15.8797 21.1406 16.8557 22.7759 18.4413 23.4416C18.9992 23.6758 19.2398 23.7193 19.9771 23.7193C20.7144 23.7193 20.955 23.6758 21.5129 23.4416C23.6206 22.5567 24.5415 20.0381 23.5075 17.9867C22.9124 16.8061 21.7149 15.9912 20.3677 15.85C19.957 15.807 19.9655 15.807 19.5348 15.8524ZM20.4263 17.5873C21.2378 17.7577 21.9127 18.3853 22.1483 19.1887C22.3028 19.7157 22.2134 20.4094 21.9257 20.9144C21.4122 21.816 20.2728 22.2519 19.2885 21.9231C18.3336 21.6043 17.7355 20.7838 17.7368 19.7942C17.7375 19.1523 17.9363 18.6734 18.3951 18.2083C18.9383 17.6576 19.6804 17.4307 20.4263 17.5873Z" fill="white"/>
</svg>
