<svg width="20" height="18" viewBox="0 0 20 18" fill="none" xmlns="http://www.w3.org/2000/svg">
<path fill-rule="evenodd" clip-rule="evenodd" d="M5.82487 0.0051737C5.471 0.0306992 5.33604 0.0433937 5.33313 0.0514262C5.3312 0.0567497 5.31702 0.0610548 5.30163 0.0609918C5.25114 0.0608133 5.06375 0.0861078 5.05828 0.0938463C5.05534 0.0980043 5.01286 0.106887 4.96387 0.113597C4.91489 0.120306 4.87241 0.129609 4.86947 0.134271C4.86653 0.138944 4.82885 0.148215 4.78572 0.154872C4.74259 0.16154 4.70479 0.170948 4.70172 0.175767C4.69865 0.180597 4.67722 0.187149 4.65412 0.190341C4.56314 0.20292 4.48645 0.220077 4.48086 0.229118C4.47764 0.234336 4.45474 0.241844 4.42998 0.245813C4.40522 0.249771 4.37934 0.258633 4.37245 0.265521C4.3611 0.276872 4.34424 0.281418 4.24497 0.299856C4.22785 0.303048 4.20829 0.311175 4.20153 0.317937C4.19478 0.324699 4.16272 0.336155 4.13031 0.34341C4.0979 0.350666 4.07137 0.360389 4.07137 0.365009C4.07137 0.369629 4.05281 0.37638 4.03012 0.380013C4.00743 0.383636 3.9825 0.39297 3.97473 0.40074C3.96696 0.40851 3.93591 0.420795 3.90574 0.42803C3.87556 0.435264 3.85087 0.445197 3.85087 0.450101C3.85087 0.455004 3.82261 0.466943 3.78805 0.476634C3.7535 0.486336 3.71985 0.500753 3.71327 0.50868C3.70669 0.516608 3.68992 0.523097 3.67601 0.523097C3.6621 0.523097 3.64817 0.529722 3.64506 0.537818C3.64197 0.545913 3.62296 0.555615 3.60284 0.559395C3.58273 0.563165 3.56365 0.573087 3.56044 0.581424C3.55725 0.589772 3.54798 0.596597 3.53985 0.596597C3.53174 0.596597 3.51688 0.601028 3.50685 0.606446C3.49683 0.611864 3.46027 0.629031 3.42562 0.644603C3.39097 0.660174 3.36026 0.676344 3.35737 0.680523C3.35449 0.684713 3.33322 0.694688 3.31012 0.702689C3.28702 0.71069 3.26435 0.723164 3.25973 0.730419C3.25511 0.737664 3.24235 0.743597 3.23137 0.743597C3.2204 0.743597 3.20764 0.749634 3.20302 0.757026C3.1984 0.764408 3.17455 0.779297 3.15 0.790112C3.12546 0.800937 3.10538 0.812844 3.10538 0.816582C3.10538 0.82032 3.08884 0.829361 3.06862 0.836669C3.04841 0.843977 3.03187 0.854004 3.03187 0.85896C3.03187 0.863916 3.01416 0.873786 2.9925 0.880895C2.97085 0.888003 2.94695 0.902535 2.9394 0.913203C2.93186 0.923871 2.91886 0.932597 2.91053 0.932597C2.90219 0.932597 2.89538 0.93686 2.89538 0.942068C2.89538 0.947276 2.88238 0.956169 2.8665 0.961829C2.85062 0.967499 2.82627 0.982136 2.81239 0.994358C2.79851 1.00659 2.78097 1.0166 2.77339 1.0166C2.76582 1.0166 2.75456 1.02605 2.74837 1.0376C2.74219 1.04915 2.73226 1.0586 2.7263 1.0586C2.72035 1.0586 2.69999 1.07041 2.68106 1.08485C2.66213 1.09928 2.64135 1.1111 2.63488 1.1111C2.62841 1.1111 2.61806 1.12055 2.61188 1.1321C2.60569 1.14365 2.59356 1.1531 2.58492 1.1531C2.57629 1.1531 2.56649 1.16018 2.56318 1.16885C2.55985 1.17751 2.55173 1.18461 2.54513 1.18462C2.53852 1.18464 2.51659 1.1988 2.49638 1.2161C2.47616 1.23339 2.45681 1.24755 2.45339 1.24758C2.44995 1.24759 2.43342 1.2594 2.41664 1.27384C2.39985 1.28826 2.38299 1.30008 2.37915 1.30009C2.37287 1.3001 2.35223 1.3182 2.2645 1.40061C2.24958 1.41463 2.23301 1.4261 2.22768 1.4261C2.22235 1.4261 2.20338 1.44199 2.18555 1.46143C2.16771 1.48086 2.14792 1.49858 2.14156 1.5008C2.11472 1.51018 1.67738 1.93514 1.67738 1.95183C1.67738 1.95721 1.67029 1.9616 1.66163 1.9616C1.65296 1.9616 1.64588 1.96754 1.64588 1.97481C1.64588 1.98206 1.6148 2.01793 1.57682 2.05449C1.53884 2.09106 1.51015 2.12338 1.51308 2.1263C1.516 2.12922 1.49983 2.14869 1.47713 2.16955C1.45444 2.19041 1.43588 2.21138 1.43588 2.21614C1.43588 2.2209 1.41934 2.24134 1.39913 2.26155C1.37891 2.28176 1.36238 2.30259 1.36238 2.30786C1.36238 2.31311 1.35327 2.32378 1.34214 2.33157C1.33101 2.33938 1.31608 2.35854 1.30895 2.37417C1.30183 2.38981 1.29192 2.4026 1.28693 2.4026C1.28193 2.4026 1.27331 2.41454 1.26777 2.42912C1.26223 2.4437 1.25053 2.45838 1.24178 2.46174C1.23304 2.46509 1.22588 2.47419 1.22588 2.48195C1.22588 2.4897 1.21764 2.50066 1.20758 2.50628C1.19753 2.51191 1.19264 2.51986 1.19673 2.52396C1.20082 2.52804 1.19226 2.54075 1.17771 2.55219C1.16317 2.56362 1.15386 2.57557 1.15701 2.57872C1.16016 2.58188 1.15332 2.59106 1.14181 2.59913C1.13029 2.60719 1.12088 2.62061 1.12088 2.62895C1.12088 2.63728 1.11603 2.6441 1.11011 2.6441C1.1042 2.6441 1.09487 2.65591 1.08938 2.67035C1.08388 2.68478 1.07405 2.6966 1.06751 2.6966C1.06097 2.6966 1.05835 2.70368 1.06168 2.71235C1.06499 2.72101 1.06302 2.7281 1.05729 2.7281C1.05155 2.7281 1.04237 2.73991 1.03688 2.75435C1.03138 2.76878 1.02293 2.7806 1.01809 2.7806C1.01325 2.7806 1.0028 2.79713 0.994875 2.81735C0.986948 2.83756 0.9765 2.8541 0.97166 2.8541C0.966819 2.8541 0.958367 2.86591 0.952875 2.88035C0.947384 2.89478 0.938417 2.9066 0.932946 2.9066C0.927476 2.9066 0.917396 2.92432 0.910529 2.94597C0.903672 2.96763 0.892448 2.99007 0.885602 2.99585C0.878756 3.00162 0.866891 3.0217 0.859236 3.04047C0.851582 3.05925 0.841543 3.0746 0.836913 3.0746C0.832293 3.0746 0.823043 3.09113 0.816375 3.11135C0.809708 3.13156 0.800457 3.1481 0.795837 3.1481C0.791207 3.1481 0.781148 3.16345 0.773472 3.18222C0.765797 3.201 0.753407 3.22259 0.745941 3.23022C0.738486 3.23785 0.732375 3.25027 0.732375 3.25781C0.732375 3.26535 0.72534 3.27736 0.716741 3.2845C0.708141 3.29164 0.7037 3.30167 0.70686 3.30678C0.710021 3.31191 0.708372 3.3161 0.703175 3.3161C0.697988 3.3161 0.687498 3.335 0.679875 3.3581C0.672252 3.3812 0.662235 3.4001 0.657615 3.4001C0.652995 3.4001 0.643556 3.419 0.636636 3.4421C0.629717 3.4652 0.620078 3.4841 0.615216 3.4841C0.610355 3.4841 0.606375 3.49326 0.606375 3.50448C0.606375 3.51569 0.60165 3.52778 0.595875 3.53135C0.5901 3.53492 0.585375 3.547 0.585375 3.55822C0.585375 3.56943 0.580367 3.5786 0.574256 3.5786C0.568145 3.5786 0.566055 3.58332 0.569625 3.5891C0.573195 3.59487 0.571862 3.5996 0.566654 3.5996C0.561456 3.5996 0.551534 3.6185 0.544614 3.6416C0.537695 3.6647 0.528392 3.6836 0.52394 3.6836C0.519488 3.6836 0.509523 3.70826 0.501795 3.73841C0.494067 3.76855 0.481551 3.79942 0.47397 3.80699C0.4664 3.81457 0.457128 3.83716 0.453369 3.85718C0.44961 3.87721 0.442061 3.8936 0.43659 3.8936C0.431109 3.8936 0.429555 3.89832 0.433125 3.9041C0.436695 3.90987 0.434606 3.9146 0.428495 3.9146C0.422384 3.9146 0.417375 3.92849 0.417375 3.94548C0.417375 3.96247 0.41265 3.97928 0.406875 3.98285C0.4011 3.98642 0.396375 3.9985 0.396375 4.00972C0.396375 4.02093 0.392406 4.0301 0.387545 4.0301C0.382694 4.0301 0.372897 4.05608 0.365789 4.08785C0.35868 4.11961 0.348821 4.1456 0.343865 4.1456C0.338919 4.1456 0.329469 4.17158 0.322875 4.20335C0.316281 4.23511 0.305949 4.2611 0.299912 4.2611C0.293853 4.2611 0.291176 4.27289 0.293948 4.28735C0.296709 4.30178 0.295313 4.3136 0.29084 4.3136C0.286377 4.3136 0.279531 4.3325 0.275625 4.3556C0.271719 4.3787 0.263666 4.3976 0.257723 4.3976C0.25179 4.3976 0.249396 4.40705 0.25242 4.4186C0.255434 4.43015 0.254384 4.4396 0.250079 4.4396C0.245763 4.4396 0.236324 4.47267 0.2291 4.5131C0.221876 4.55352 0.212163 4.5866 0.207522 4.5866C0.199595 4.5866 0.194135 4.61292 0.179739 4.72047C0.176453 4.74501 0.168956 4.7651 0.163097 4.7651C0.157227 4.7651 0.154896 4.77455 0.15792 4.7861C0.160934 4.79765 0.159674 4.8071 0.155117 4.8071C0.150549 4.8071 0.143535 4.83781 0.139514 4.87535C0.135492 4.91288 0.127302 4.9436 0.121317 4.9436C0.115322 4.9436 0.112686 4.95541 0.115448 4.96985C0.118209 4.98428 0.117054 4.9961 0.112875 4.9961C0.105494 4.9961 0.0975766 5.05309 0.0847981 5.19822C0.0813646 5.2372 0.0751276 5.2691 0.0709486 5.2691C0.0623386 5.2691 0.0393751 5.45581 0.0393751 5.52585C0.0393751 5.55115 0.0348391 5.57342 0.0292846 5.57535C0.0146791 5.58041 -0.00604792 6.15831 0.00166958 6.34535C0.00523958 6.43197 0.0108676 6.56896 0.0141751 6.64978C0.0174826 6.7306 0.0235831 6.79911 0.0277306 6.80203C0.0318781 6.80495 0.0410971 6.8735 0.0482161 6.95435C0.0553351 7.0352 0.0657091 7.10292 0.0712741 7.10484C0.0768286 7.10678 0.0813751 7.12095 0.0813751 7.13634C0.0813646 7.18788 0.106838 7.3796 0.113694 7.3796C0.117422 7.3796 0.118209 7.39141 0.115448 7.40585C0.112686 7.42028 0.115091 7.4321 0.120792 7.4321C0.126494 7.4321 0.134369 7.46045 0.138285 7.4951C0.142212 7.52975 0.149258 7.5581 0.153941 7.5581C0.158624 7.5581 0.160209 7.56991 0.157448 7.58435C0.154686 7.59878 0.157091 7.6106 0.162782 7.6106C0.168483 7.6106 0.176117 7.63186 0.17976 7.65785C0.183393 7.68383 0.189357 7.72636 0.19299 7.75235C0.196634 7.77833 0.20348 7.7996 0.208215 7.7996C0.212951 7.7996 0.222401 7.82795 0.229215 7.8626C0.23603 7.89725 0.24528 7.9256 0.249753 7.9256C0.254237 7.9256 0.255434 7.93505 0.25242 7.9466C0.249396 7.95815 0.251601 7.9676 0.257313 7.9676C0.263015 7.9676 0.270711 7.9865 0.274407 8.0096C0.278103 8.0327 0.285138 8.0516 0.290042 8.0516C0.294945 8.0516 0.296709 8.06341 0.293948 8.07785C0.291186 8.09228 0.293559 8.1041 0.299219 8.1041C0.304878 8.1041 0.315525 8.13245 0.322875 8.1671C0.330225 8.20175 0.339906 8.2301 0.34439 8.2301C0.348863 8.2301 0.35574 8.24909 0.359657 8.27231C0.363584 8.29552 0.373034 8.32075 0.380657 8.32838C0.38828 8.336 0.400733 8.36898 0.408335 8.40167C0.415937 8.43435 0.425649 8.4611 0.429933 8.4611C0.434217 8.4611 0.434994 8.46818 0.431676 8.47685C0.428348 8.48551 0.430794 8.4926 0.437105 8.4926C0.443415 8.4926 0.453926 8.51386 0.460467 8.53985C0.467019 8.56583 0.475503 8.5871 0.479325 8.5871C0.483158 8.5871 0.492566 8.60836 0.500241 8.63435C0.507917 8.66033 0.518333 8.6816 0.523383 8.6816C0.528434 8.6816 0.537926 8.70286 0.544467 8.72885C0.551019 8.75483 0.560532 8.7761 0.565625 8.7761C0.570707 8.7761 0.573993 8.77964 0.572922 8.78397C0.571851 8.78831 0.578939 8.81014 0.588672 8.8325C0.598406 8.85487 0.606375 8.87916 0.606375 8.8865C0.606375 8.89384 0.613463 8.90257 0.622125 8.9059C0.630788 8.90921 0.637875 8.92103 0.637875 8.93215C0.637875 8.94326 0.644039 8.95471 0.651578 8.95761C0.659117 8.9605 0.671685 8.98226 0.679508 9.00598C0.68733 9.02969 0.697263 9.0491 0.701568 9.0491C0.705884 9.0491 0.707112 9.0579 0.704298 9.06865C0.701232 9.08038 0.705821 9.09075 0.715775 9.09457C0.72491 9.09807 0.732375 9.10817 0.732375 9.11702C0.732375 9.12586 0.737384 9.1331 0.743495 9.1331C0.749606 9.1331 0.751695 9.13782 0.748125 9.1436C0.744555 9.14937 0.745763 9.1541 0.750792 9.1541C0.755832 9.1541 0.766448 9.17063 0.774375 9.19085C0.782303 9.21106 0.792635 9.2276 0.797339 9.2276C0.802032 9.2276 0.805875 9.23379 0.805875 9.24136C0.805875 9.24894 0.815136 9.26507 0.826455 9.27722C0.837764 9.28937 0.850185 9.3119 0.854049 9.3273C0.857913 9.3427 0.867258 9.35766 0.874818 9.36057C0.882368 9.36347 0.88598 9.37253 0.88284 9.38072C0.879701 9.3889 0.88179 9.3956 0.887481 9.3956C0.893172 9.3956 0.903557 9.40944 0.91056 9.42634C0.917564 9.44326 0.929502 9.45947 0.937093 9.46239C0.944685 9.46529 0.954083 9.48217 0.957968 9.49988C0.961863 9.51761 0.969507 9.5321 0.974967 9.5321C0.980427 9.5321 0.989384 9.54391 0.994875 9.55835C1.00037 9.57278 1.00997 9.5846 1.01623 9.5846C1.02249 9.5846 1.0247 9.58932 1.02113 9.5951C1.01756 9.60087 1.01846 9.60568 1.02313 9.6058C1.0278 9.6059 1.0458 9.6301 1.06313 9.65959C1.08045 9.68906 1.10289 9.72073 1.113 9.72997C1.1231 9.73921 1.13138 9.75256 1.13138 9.75966C1.13138 9.76675 1.13782 9.77633 1.14571 9.78095C1.15358 9.78557 1.16799 9.80493 1.17772 9.82397C1.19709 9.86184 1.21478 9.8852 1.26263 9.93612C1.27995 9.95454 1.30121 9.9833 1.30988 10C1.31854 10.0167 1.34098 10.0446 1.35975 10.0621C1.37851 10.0795 1.39388 10.0981 1.39388 10.1034C1.39388 10.1087 1.40517 10.1253 1.41897 10.1402C1.5135 10.2424 1.55138 10.2858 1.55138 10.2919C1.55138 10.2958 1.58681 10.3335 1.63013 10.3757C1.67344 10.4179 1.70888 10.4557 1.70888 10.4598C1.70888 10.4639 2.42944 11.1877 3.31012 12.0682C4.19081 12.9488 4.91138 13.6716 4.91138 13.6745C4.91138 13.6824 4.97034 13.7426 4.97801 13.7426C4.99102 13.7426 5.90393 14.6627 5.91843 14.6904C5.92658 14.706 5.94193 14.7215 5.95255 14.7249C5.96318 14.7283 5.97187 14.7354 5.97187 14.7408C5.97187 14.7462 5.97646 14.7506 5.98207 14.7506C5.99609 14.7506 6.89073 15.6461 6.89948 15.6688C6.90333 15.6789 6.91591 15.6896 6.92743 15.6926C6.93895 15.6956 6.94837 15.7046 6.94837 15.7126C6.94837 15.7206 6.95305 15.7271 6.95877 15.7271C6.97237 15.7271 7.57837 16.3331 7.57837 16.3467C7.57837 16.3524 7.58303 16.3571 7.58872 16.3571C7.60244 16.3571 7.89337 16.6477 7.89337 16.6614C7.89337 16.6673 7.8981 16.6721 7.90387 16.6721C7.90965 16.6721 7.91437 16.6784 7.91437 16.6861C7.91437 16.6938 7.92736 16.7067 7.94325 16.7148C7.98023 16.7337 8.0163 16.7706 8.01161 16.7847C8.0096 16.7907 8.0194 16.7985 8.03338 16.802C8.04736 16.8055 8.06657 16.8202 8.07608 16.8347C8.08559 16.8492 8.09849 16.8611 8.10476 16.8611C8.11621 16.8611 8.13852 16.8791 8.20577 16.9425C8.22569 16.9612 8.24533 16.9766 8.24944 16.9766C8.25356 16.9766 8.26652 16.9855 8.27826 16.9965C8.28999 17.0074 8.31451 17.0241 8.33274 17.0335C8.35096 17.0429 8.36588 17.0549 8.36588 17.06C8.36588 17.0652 8.38036 17.0726 8.39809 17.0765C8.4158 17.0804 8.43284 17.0902 8.43596 17.0983C8.43907 17.1064 8.44731 17.1131 8.45426 17.1131C8.46123 17.1131 8.47607 17.1214 8.48727 17.1315C8.49847 17.1416 8.5218 17.1563 8.53912 17.1642C8.55645 17.1721 8.57771 17.1827 8.58638 17.1879C8.59504 17.193 8.60921 17.1999 8.61788 17.2032C8.62654 17.2065 8.64183 17.2135 8.65185 17.2189C8.66188 17.2242 8.67674 17.2286 8.68485 17.2286C8.69298 17.2286 8.70225 17.2354 8.70545 17.2438C8.70865 17.2521 8.72806 17.2621 8.74857 17.2659C8.76909 17.2698 8.78588 17.2768 8.78588 17.2815C8.78588 17.2862 8.81252 17.2979 8.84509 17.3073C8.87767 17.3168 8.91428 17.3308 8.92647 17.3384C8.93865 17.346 8.966 17.3553 8.98723 17.359C9.00847 17.3627 9.0274 17.3704 9.0293 17.3761C9.0312 17.3818 9.0579 17.3895 9.08862 17.3931C9.11935 17.3967 9.15011 17.4053 9.15697 17.4122C9.16383 17.4191 9.19064 17.428 9.21653 17.432C9.24244 17.436 9.28253 17.4422 9.30562 17.4458C9.32872 17.4493 9.35022 17.4562 9.35338 17.461C9.36369 17.4766 9.70016 17.5031 9.88838 17.503C10.1235 17.503 10.4029 17.4787 10.4029 17.4584C10.4029 17.4533 10.4146 17.4491 10.4289 17.4491C10.4773 17.4491 10.6075 17.4235 10.62 17.4115C10.6268 17.405 10.6542 17.3967 10.681 17.393C10.7077 17.3893 10.7368 17.3792 10.7455 17.3705C10.7542 17.3617 10.7777 17.3546 10.7977 17.3546C10.8203 17.3546 10.8363 17.3486 10.8401 17.3388C10.8434 17.3302 10.8539 17.3231 10.8634 17.3231C10.8836 17.3232 10.9832 17.2895 10.9909 17.28C10.9938 17.2765 11.0138 17.2672 11.0355 17.2595C11.0572 17.2517 11.0749 17.2424 11.0749 17.2387C11.0749 17.235 11.0938 17.2257 11.1169 17.2181C11.14 17.2105 11.1589 17.201 11.1589 17.1971C11.1589 17.1932 11.1783 17.1835 11.202 17.1757C11.2257 17.1679 11.2472 17.156 11.2498 17.1493C11.2524 17.1426 11.2731 17.1309 11.2959 17.1234C11.3187 17.1159 11.3374 17.1056 11.3374 17.1007C11.3374 17.0957 11.3492 17.0871 11.3636 17.0816C11.3781 17.0761 11.3899 17.0673 11.3899 17.0621C11.3899 17.0568 11.3981 17.0498 11.4082 17.0464C11.4344 17.0376 11.4672 17.0156 11.477 17.0002C11.4816 16.993 11.4921 16.9871 11.5003 16.9871C11.5085 16.9871 11.5202 16.9776 11.5264 16.9661C11.5326 16.9545 11.5434 16.945 11.5504 16.9449C11.5574 16.9448 11.5743 16.933 11.5879 16.9187C11.6014 16.9043 11.6162 16.8926 11.6207 16.8926C11.6252 16.8926 11.6483 16.8749 11.672 16.8532C11.7766 16.7579 15.7684 12.7647 15.7684 12.7554C15.7684 12.7497 15.7731 12.7451 15.7789 12.7451C15.7899 12.7451 16.5664 11.9722 16.5664 11.9612C16.5664 11.9577 16.9177 11.6036 17.3471 11.1742C17.7765 10.7449 18.126 10.3918 18.1238 10.3895C18.1216 10.3873 18.1482 10.3576 18.183 10.3236C18.2178 10.2896 18.2463 10.2579 18.2463 10.2532C18.2463 10.2484 18.2641 10.2259 18.2857 10.2032C18.3074 10.1805 18.3355 10.149 18.3481 10.1331C18.3607 10.1173 18.3855 10.0872 18.4032 10.0662C18.4209 10.0452 18.4354 10.0233 18.4354 10.0175C18.4354 10.0116 18.4425 10.0041 18.4513 10.0007C18.46 9.99738 18.4717 9.9827 18.4773 9.96812C18.4828 9.95354 18.4922 9.9416 18.4981 9.9416C18.504 9.9416 18.5089 9.93455 18.5089 9.92593C18.5089 9.91732 18.5183 9.90437 18.5299 9.89716C18.5414 9.88995 18.5509 9.87928 18.5509 9.87344C18.5509 9.8636 18.5792 9.8251 18.6184 9.78147C18.6274 9.77136 18.6349 9.75926 18.6349 9.75458C18.6349 9.74989 18.6445 9.73571 18.6563 9.72308C18.6681 9.71044 18.675 9.7001 18.6716 9.7001C18.6657 9.7001 18.6761 9.68567 18.7084 9.64933C18.717 9.63955 18.7299 9.61863 18.737 9.60282C18.7441 9.58702 18.7539 9.5741 18.7587 9.5741C18.7635 9.5741 18.7739 9.55756 18.7819 9.53735C18.7898 9.51713 18.8001 9.5006 18.8048 9.5006C18.8095 9.5006 18.8134 9.49542 18.8134 9.48909C18.8134 9.48277 18.8232 9.46387 18.8351 9.44709C18.847 9.43032 18.8529 9.41645 18.8482 9.41628C18.8435 9.4161 18.8475 9.41135 18.8572 9.40572C18.8668 9.40008 18.8778 9.38133 18.8816 9.36403C18.8854 9.34674 18.8931 9.3326 18.8988 9.3326C18.9044 9.3326 18.9139 9.31842 18.92 9.3011C18.926 9.28377 18.9344 9.2696 18.9387 9.2696C18.943 9.2696 18.9528 9.25047 18.9605 9.22708C18.9683 9.2037 18.9799 9.18126 18.9865 9.17721C18.993 9.17315 19.0046 9.15448 19.0121 9.13572C19.0197 9.11696 19.0301 9.1016 19.0351 9.1016C19.0402 9.1016 19.0444 9.09243 19.0444 9.08122C19.0444 9.07 19.0491 9.05792 19.0549 9.05435C19.0606 9.05078 19.0654 9.03853 19.0654 9.02715C19.0654 9.01576 19.072 9.00389 19.0801 9.00079C19.0882 8.99769 19.0979 8.97868 19.1017 8.95857C19.1054 8.93845 19.1154 8.91937 19.1237 8.91617C19.132 8.91297 19.1389 8.90164 19.1389 8.891C19.1389 8.88035 19.1467 8.86728 19.1562 8.86195C19.1674 8.85568 19.1715 8.84436 19.1677 8.82992C19.1645 8.81764 19.1659 8.8076 19.1709 8.8076C19.1758 8.8076 19.1844 8.79112 19.19 8.77098C19.1956 8.75084 19.2076 8.72688 19.2167 8.71773C19.2259 8.70858 19.2334 8.68995 19.2334 8.67635C19.2334 8.66274 19.2404 8.6446 19.2489 8.63607C19.2575 8.62752 19.2702 8.59883 19.2773 8.57231C19.2844 8.5458 19.2943 8.5241 19.2992 8.5241C19.3041 8.5241 19.3052 8.51937 19.3016 8.5136C19.2981 8.50782 19.2994 8.5031 19.3046 8.5031C19.3098 8.5031 19.3199 8.47711 19.327 8.44535C19.3341 8.41358 19.3443 8.3876 19.3496 8.3876C19.355 8.3876 19.3594 8.38043 19.3594 8.37168C19.3594 8.34735 19.3845 8.2721 19.3927 8.2721C19.3966 8.2721 19.4055 8.24492 19.4124 8.21172C19.4192 8.17851 19.4289 8.14874 19.434 8.14555C19.439 8.14237 19.448 8.11426 19.4539 8.0831C19.4598 8.05193 19.47 8.02313 19.4765 8.01909C19.483 8.01505 19.4858 8.00204 19.4827 7.99017C19.4796 7.97831 19.4813 7.9672 19.4864 7.96548C19.4915 7.96375 19.5009 7.934 19.5073 7.89935C19.5137 7.8647 19.5233 7.83363 19.5287 7.8303C19.5341 7.82697 19.5433 7.794 19.5493 7.75704C19.5552 7.72007 19.5638 7.68736 19.5683 7.68434C19.5728 7.68131 19.5829 7.63513 19.5907 7.58172C19.5986 7.52831 19.6093 7.4846 19.6146 7.4846C19.6199 7.4846 19.6222 7.47042 19.6196 7.4531C19.6171 7.43577 19.6182 7.4216 19.6221 7.4216C19.6261 7.4216 19.6354 7.37198 19.6429 7.31135C19.6504 7.25071 19.6599 7.2011 19.664 7.2011C19.6716 7.2011 19.6798 7.13318 19.6918 6.9701C19.6954 6.92101 19.7021 6.87839 19.7067 6.87539C19.7186 6.86761 19.7373 6.45691 19.7372 6.20885C19.737 5.94747 19.7198 5.58227 19.7073 5.57431C19.7022 5.57103 19.6952 5.52582 19.6918 5.47385C19.6802 5.29626 19.6716 5.2166 19.6642 5.2166C19.6602 5.2166 19.6483 5.15753 19.6378 5.08535C19.6274 5.01316 19.6157 4.9541 19.6119 4.9541C19.608 4.9541 19.5987 4.91039 19.5912 4.85697C19.5837 4.80356 19.5735 4.75733 19.5686 4.75425C19.5638 4.75118 19.5543 4.71338 19.5477 4.67025C19.541 4.62713 19.5307 4.58882 19.5248 4.58512C19.5189 4.58142 19.5101 4.5531 19.5052 4.5222C19.5003 4.49129 19.4923 4.46467 19.4875 4.46304C19.4826 4.46142 19.4806 4.44602 19.4832 4.42884C19.4859 4.41031 19.4831 4.3976 19.4762 4.3976C19.4698 4.3976 19.4616 4.3787 19.4579 4.3556C19.4542 4.3325 19.4472 4.3136 19.4424 4.3136C19.4375 4.3136 19.4362 4.30663 19.4395 4.29812C19.4427 4.2896 19.4379 4.27509 19.4286 4.26586C19.4194 4.25664 19.4119 4.23559 19.4119 4.2191C19.4119 4.2026 19.4058 4.18285 19.3983 4.17522C19.3908 4.16759 19.3782 4.13418 19.3704 4.10097C19.3625 4.06776 19.3526 4.0406 19.3484 4.0406C19.3441 4.0406 19.3324 4.00988 19.3222 3.97235C19.3121 3.93481 19.3006 3.9041 19.2968 3.9041C19.293 3.9041 19.2838 3.88047 19.2764 3.8516C19.269 3.82272 19.2594 3.7991 19.2551 3.7991C19.2507 3.7991 19.2415 3.7802 19.2346 3.7571C19.2277 3.734 19.2181 3.7151 19.2132 3.7151C19.2083 3.7151 19.199 3.69383 19.1925 3.66785C19.1859 3.64186 19.1764 3.6206 19.1712 3.6206C19.1661 3.6206 19.1643 3.61115 19.1673 3.5996C19.1704 3.58805 19.1679 3.5786 19.1618 3.5786C19.1557 3.5786 19.1475 3.56796 19.1436 3.55497C19.1396 3.54197 19.1305 3.52426 19.1233 3.5156C19.1161 3.50693 19.1072 3.48718 19.1035 3.47171C19.0998 3.45623 19.0898 3.43649 19.0811 3.42783C19.0725 3.41917 19.0654 3.40495 19.0654 3.39621C19.0654 3.38749 19.0606 3.37742 19.0549 3.37385C19.0491 3.37028 19.0444 3.3587 19.0444 3.3481C19.0444 3.33751 19.0373 3.32612 19.0286 3.3228C19.02 3.31948 19.0129 3.30701 19.0129 3.2951C19.0129 3.28318 19.0061 3.27083 18.9978 3.26765C18.9895 3.26447 18.9853 3.25516 18.9884 3.24697C18.9916 3.2388 18.9895 3.2321 18.9838 3.2321C18.9781 3.2321 18.9675 3.21792 18.9604 3.2006C18.9532 3.18327 18.9436 3.1691 18.9389 3.1691C18.9343 3.1691 18.9274 3.15461 18.9235 3.13688C18.9196 3.11917 18.9104 3.10236 18.903 3.09952C18.8956 3.09669 18.8809 3.07338 18.8703 3.04774C18.8597 3.02209 18.8473 3.0011 18.8427 3.0011C18.8381 3.0011 18.8344 2.99474 18.8344 2.98698C18.8344 2.97921 18.8224 2.95914 18.8079 2.94236C18.7933 2.92557 18.7787 2.90156 18.7754 2.88898C18.7721 2.87641 18.7634 2.86379 18.756 2.86095C18.7486 2.85812 18.7393 2.84263 18.7352 2.82653C18.7312 2.81045 18.7188 2.7909 18.7076 2.7831C18.6965 2.77529 18.6874 2.76208 18.6874 2.75375C18.6874 2.74541 18.6829 2.7386 18.6774 2.7386C18.6719 2.7386 18.6591 2.72088 18.6491 2.69922C18.639 2.67757 18.6246 2.65607 18.6171 2.65145C18.6095 2.64683 18.6034 2.63643 18.6034 2.62835C18.6034 2.62026 18.5951 2.60883 18.585 2.60294C18.5749 2.59705 18.5709 2.59209 18.576 2.59191C18.5812 2.59174 18.5732 2.58028 18.5583 2.56645C18.5434 2.55262 18.5334 2.53904 18.5362 2.53628C18.5389 2.53352 18.5257 2.51506 18.5067 2.49528C18.4877 2.47549 18.4627 2.44571 18.4511 2.42912C18.4396 2.41252 18.4195 2.38859 18.4065 2.37594C18.3935 2.36328 18.3829 2.34774 18.3829 2.34139C18.3829 2.33503 18.3744 2.32531 18.3641 2.31978C18.3537 2.31425 18.3384 2.29657 18.33 2.28049C18.3215 2.26442 18.3009 2.23806 18.2842 2.22192C18.2675 2.2058 18.2577 2.1926 18.2625 2.1926C18.2673 2.1926 18.2538 2.17712 18.2325 2.15821C18.2113 2.13929 18.1939 2.11971 18.1939 2.11468C18.1939 2.10966 18.147 2.05933 18.0897 2.00284C18.0323 1.94636 17.9802 1.89034 17.9738 1.87837C17.9674 1.86639 17.9555 1.8566 17.9475 1.8566C17.9394 1.8566 17.9298 1.84715 17.9261 1.8356C17.9225 1.82405 17.9153 1.8146 17.9101 1.8146C17.8976 1.8146 17.8474 1.76376 17.8474 1.75112C17.8474 1.74561 17.8429 1.7411 17.8374 1.7411C17.8319 1.7411 17.7945 1.70802 17.7543 1.6676C17.7141 1.62717 17.6761 1.5941 17.6698 1.5941C17.6635 1.5941 17.6584 1.58701 17.6584 1.57835C17.6584 1.56968 17.6529 1.5626 17.6461 1.5626C17.6394 1.5626 17.6217 1.55113 17.6067 1.53711C17.527 1.46215 17.5005 1.44001 17.4686 1.42157C17.4492 1.41042 17.4204 1.38798 17.4045 1.3717C17.3886 1.35542 17.3715 1.3421 17.3666 1.3421C17.3617 1.3421 17.348 1.33147 17.3363 1.31847C17.3063 1.28534 17.2761 1.26186 17.2389 1.2426C17.2213 1.23351 17.2069 1.22145 17.2069 1.21582C17.2069 1.2102 17.2004 1.2056 17.1924 1.2056C17.1845 1.2056 17.1581 1.1869 17.1338 1.16404C17.1096 1.14119 17.0795 1.11929 17.0669 1.11538C17.0403 1.1071 16.9467 1.04412 16.9038 1.00565C16.8939 0.996741 16.8694 0.983018 16.8494 0.975153C16.8295 0.967289 16.8083 0.955676 16.8025 0.949355C16.7887 0.934424 16.7382 0.904026 16.695 0.884633C16.6762 0.876212 16.6609 0.865607 16.6609 0.86106C16.6609 0.856524 16.6443 0.846833 16.6241 0.839525C16.6039 0.832217 16.5874 0.822462 16.5874 0.817842C16.5874 0.813222 16.5649 0.80099 16.5375 0.790647C16.5101 0.780305 16.4841 0.765857 16.4797 0.758538C16.4753 0.75122 16.4576 0.742127 16.4403 0.738336C16.423 0.734535 16.4089 0.727448 16.4089 0.722576C16.4089 0.717704 16.3923 0.708264 16.3721 0.701597C16.3519 0.694929 16.3353 0.686288 16.3353 0.682403C16.3352 0.67143 16.2814 0.649097 16.255 0.649097C16.2421 0.649097 16.2276 0.642986 16.223 0.63552C16.2184 0.628044 16.1945 0.615476 16.17 0.60759C16.1455 0.599694 16.1254 0.590024 16.1254 0.586097C16.1254 0.58217 16.1053 0.572499 16.0807 0.564603C16.0562 0.556718 16.0326 0.544685 16.0284 0.53787C16.0241 0.531066 16.0041 0.522372 15.9838 0.518571C15.9635 0.51476 15.9469 0.507137 15.9469 0.501624C15.9469 0.496112 15.9353 0.491597 15.9212 0.491597C15.9071 0.491597 15.893 0.487407 15.8899 0.482283C15.8867 0.47717 15.8675 0.469862 15.8472 0.466061C15.827 0.46226 15.8104 0.454689 15.8104 0.44925C15.8104 0.443801 15.7912 0.436272 15.7677 0.432513C15.7442 0.428765 15.7193 0.419976 15.7123 0.413004C15.7053 0.406032 15.6737 0.394188 15.6421 0.386691C15.6105 0.379184 15.5823 0.369671 15.5794 0.365544C15.5765 0.361418 15.5434 0.350309 15.5059 0.340859C15.4684 0.331409 15.4361 0.318935 15.4341 0.313139C15.4322 0.307343 15.4193 0.302597 15.4054 0.302597C15.3743 0.302597 15.282 0.279276 15.2748 0.269595C15.2719 0.265689 15.2389 0.256313 15.2013 0.248763C15.1638 0.241224 15.1307 0.231627 15.1277 0.227459C15.1208 0.217998 14.975 0.187118 14.9371 0.187107C14.9217 0.187097 14.9076 0.182424 14.9056 0.176712C14.9037 0.171 14.862 0.160973 14.8129 0.15441C14.7638 0.147858 14.721 0.138398 14.7178 0.1334C14.7146 0.128391 14.6627 0.119235 14.6025 0.113061C14.5423 0.106877 14.4906 0.0980672 14.4876 0.0934682C14.4821 0.0851417 14.4198 0.0779178 14.2406 0.0648558C14.1886 0.0610653 14.1438 0.0545132 14.1409 0.0502922C14.1338 0.0399917 13.7324 0.0190338 13.5424 0.0190338C13.3515 0.0190338 12.9509 0.0400127 12.9439 0.0503867C12.941 0.0546497 12.8961 0.0611597 12.8441 0.0648452C12.6432 0.0790727 12.5869 0.0851313 12.5869 0.0924918C12.5869 0.0966918 12.5384 0.105627 12.4792 0.112347C12.4201 0.119067 12.37 0.129179 12.3681 0.134828C12.3662 0.140477 12.3526 0.145097 12.3378 0.145097C12.2965 0.145097 12.1774 0.168827 12.1774 0.177048C12.1774 0.18107 12.1573 0.187023 12.1327 0.190268C12.0353 0.203141 11.9518 0.220266 11.9466 0.228435C11.9436 0.233181 11.9162 0.240447 11.8857 0.244595C11.8553 0.248753 11.8245 0.257961 11.8174 0.26508C11.8056 0.276851 11.7853 0.282332 11.6891 0.299783C11.6718 0.302922 11.6553 0.308792 11.6524 0.312813C11.6475 0.319554 11.5901 0.33752 11.5264 0.352178C11.5119 0.355506 11.4978 0.361092 11.4949 0.364589C11.4872 0.373955 11.4175 0.397097 11.397 0.397097C11.3873 0.397097 11.3794 0.401759 11.3794 0.40745C11.3794 0.413141 11.3581 0.423147 11.3321 0.429689C11.3061 0.436241 11.2849 0.445754 11.2849 0.450846C11.2849 0.455928 11.2792 0.460097 11.2723 0.460097C11.2486 0.460097 11.1379 0.496227 11.1379 0.503945C11.1379 0.508187 11.1213 0.51476 11.101 0.518571C11.0807 0.522372 11.0606 0.531098 11.0564 0.537944C11.0521 0.5448 11.0285 0.556256 11.004 0.563417C10.9795 0.570578 10.9594 0.580973 10.9594 0.586517C10.9594 0.592061 10.9502 0.596597 10.939 0.596597C10.9278 0.596597 10.9157 0.601322 10.9121 0.607097C10.9086 0.612872 10.8965 0.617597 10.8853 0.617597C10.874 0.617597 10.8649 0.621944 10.8649 0.627257C10.8649 0.632559 10.8402 0.645117 10.81 0.655134C10.7798 0.665162 10.7485 0.679956 10.7405 0.687999C10.7324 0.696042 10.7125 0.705293 10.6963 0.708537C10.68 0.711792 10.6642 0.721011 10.6611 0.729023C10.658 0.737034 10.6462 0.743597 10.6347 0.743597C10.6233 0.743597 10.6101 0.749949 10.6055 0.757719C10.6009 0.765479 10.5735 0.780588 10.5446 0.791288C10.5157 0.801977 10.4883 0.816887 10.4837 0.824415C10.4791 0.831944 10.466 0.838097 10.4545 0.838097C10.4431 0.838097 10.4312 0.844754 10.428 0.852902C10.4249 0.861039 10.4118 0.870353 10.3988 0.873608C10.3859 0.876852 10.3615 0.891447 10.3445 0.906042C10.3275 0.920627 10.3082 0.932576 10.3016 0.932586C10.295 0.932586 10.2871 0.939243 10.284 0.94736C10.2808 0.955476 10.2642 0.96522 10.2469 0.969011C10.2297 0.972801 10.2022 0.987554 10.1858 1.0018C10.1435 1.03869 10.1368 1.04368 10.1089 1.0586C10.0952 1.06594 10.0749 1.08035 10.0639 1.09064C10.0528 1.10092 10.0315 1.11243 10.0164 1.11621C10.0014 1.11999 9.98268 1.13219 9.97487 1.14334C9.96707 1.15448 9.95556 1.1636 9.94932 1.1636C9.94306 1.1636 9.9327 1.17021 9.92628 1.17829C9.90418 1.20614 9.87387 1.20659 9.84239 1.17955C9.82585 1.16533 9.80343 1.15088 9.79259 1.14744C9.78175 1.14399 9.77287 1.137 9.77287 1.13189C9.77287 1.12676 9.75634 1.11473 9.73612 1.10514C9.71591 1.09556 9.69938 1.08428 9.69938 1.08009C9.69938 1.0759 9.68738 1.06701 9.67273 1.06033C9.64623 1.04825 9.63132 1.0376 9.59469 1.00453C9.58414 0.995019 9.55789 0.980855 9.53636 0.973074C9.51484 0.965294 9.49496 0.952998 9.49218 0.945764C9.4894 0.938519 9.48082 0.932597 9.4731 0.932597C9.46538 0.932597 9.45289 0.924092 9.44535 0.913697C9.4378 0.903302 9.41509 0.888213 9.39487 0.880181C9.37466 0.872148 9.35456 0.859769 9.35019 0.85266C9.34582 0.845552 9.32811 0.836627 9.31081 0.832836C9.29352 0.829035 9.27938 0.822294 9.27938 0.817853C9.27938 0.813422 9.25929 0.800885 9.23475 0.790007C9.21021 0.779118 9.18388 0.764229 9.17625 0.756911C9.16862 0.749582 9.15586 0.743597 9.14789 0.743597C9.13993 0.743597 9.12964 0.737412 9.12502 0.729852C9.12041 0.722292 9.10009 0.709577 9.07987 0.701576C9.05966 0.693585 9.04076 0.684408 9.03788 0.681195C9.02691 0.668984 8.98503 0.649097 8.97029 0.649097C8.96183 0.649097 8.95114 0.642954 8.94652 0.635447C8.94191 0.627939 8.91804 0.615938 8.8935 0.608777C8.86896 0.601616 8.84888 0.59183 8.84888 0.587042C8.84888 0.582243 8.82761 0.572373 8.80163 0.565097C8.77564 0.55782 8.75437 0.548507 8.75437 0.544391C8.75437 0.540285 8.73547 0.531255 8.71237 0.524336C8.68927 0.517416 8.67037 0.508397 8.67037 0.504302C8.67037 0.500196 8.63966 0.487575 8.60213 0.476246C8.56459 0.464916 8.53387 0.45197 8.53387 0.447497C8.53387 0.443013 8.51457 0.436262 8.49097 0.432482C8.46738 0.428712 8.44561 0.41921 8.4426 0.411356C8.4396 0.403512 8.42374 0.397097 8.40737 0.397097C8.391 0.397097 8.37469 0.392372 8.37113 0.386597C8.36756 0.380822 8.35311 0.376097 8.33901 0.376097C8.3249 0.376097 8.31337 0.371708 8.31337 0.366353C8.31337 0.360987 8.28685 0.350666 8.25444 0.34341C8.22202 0.336155 8.19013 0.324888 8.18356 0.318357C8.177 0.311837 8.14091 0.300098 8.10337 0.292275C8.06584 0.284453 8.03231 0.273848 8.02887 0.268703C8.02543 0.263558 7.99353 0.253824 7.95799 0.247073C7.92245 0.240321 7.89337 0.231365 7.89337 0.227175C7.89337 0.222975 7.87566 0.216633 7.854 0.213063C7.76819 0.198951 7.69886 0.182771 7.69387 0.175715C7.69099 0.17163 7.65082 0.162107 7.60462 0.154536C7.55842 0.146966 7.51822 0.1374 7.51528 0.133284C7.51234 0.129158 7.46986 0.120306 7.42088 0.113597C7.37189 0.106887 7.32941 0.0980043 7.32647 0.0938463C7.32095 0.0860343 7.13343 0.0608133 7.08225 0.0609918C7.06636 0.0610548 7.05337 0.0569807 7.05337 0.0519512C7.05337 0.0432782 6.9401 0.0322847 6.60653 0.00858617C6.473 -0.000905834 5.94128 -0.0032263 5.82487 0.0051737Z" fill="black"/>
</svg>
