<svg width="24" height="24" viewBox="0 0 24 24" fill="none" xmlns="http://www.w3.org/2000/svg">
<path d="M20.1598 5.00017C19.0998 3.93737 17.6946 3.28871 16.1981 3.17134C14.7017 3.05397 13.2126 3.47563 11.9998 4.36017C10.7274 3.4138 9.14378 2.98468 7.56771 3.1592C5.99164 3.33373 4.54023 4.09894 3.50576 5.30075C2.47129 6.50256 1.93061 8.05169 1.99259 9.63618C2.05457 11.2207 2.71461 12.7228 3.83979 13.8402L10.0498 20.0602C10.5698 20.5719 11.2702 20.8588 11.9998 20.8588C12.7294 20.8588 13.4298 20.5719 13.9498 20.0602L20.1598 13.8402C21.3274 12.6654 21.9827 11.0764 21.9827 9.42017C21.9827 7.76389 21.3274 6.1749 20.1598 5.00017V5.00017ZM18.7498 12.4602L12.5398 18.6702C12.4691 18.7415 12.385 18.7982 12.2923 18.8368C12.1996 18.8755 12.1002 18.8954 11.9998 18.8954C11.8994 18.8954 11.7999 18.8755 11.7072 18.8368C11.6146 18.7982 11.5305 18.7415 11.4598 18.6702L5.24979 12.4302C4.46555 11.6285 4.0264 10.5516 4.0264 9.43017C4.0264 8.3087 4.46555 7.23182 5.24979 6.43017C6.04894 5.64115 7.12676 5.19873 8.24979 5.19873C9.37281 5.19873 10.4506 5.64115 11.2498 6.43017C11.3428 6.52389 11.4534 6.59829 11.5752 6.64906C11.6971 6.69983 11.8278 6.72596 11.9598 6.72596C12.0918 6.72596 12.2225 6.69983 12.3444 6.64906C12.4662 6.59829 12.5768 6.52389 12.6698 6.43017C13.4689 5.64115 14.5468 5.19873 15.6698 5.19873C16.7928 5.19873 17.8706 5.64115 18.6698 6.43017C19.4648 7.22132 19.9184 8.29236 19.9333 9.41385C19.9483 10.5353 19.5234 11.6181 18.7498 12.4302V12.4602Z" fill="black"/>
</svg>
