<svg width="50" height="50" viewBox="0 0 50 50" fill="none" xmlns="http://www.w3.org/2000/svg">
<path d="M17.6251 26.4791L29.4168 38.25C29.6105 38.4452 29.8409 38.6002 30.0948 38.706C30.3486 38.8118 30.6209 38.8662 30.896 38.8662C31.171 38.8662 31.4433 38.8118 31.6972 38.706C31.951 38.6002 32.1815 38.4452 32.3751 38.25C32.7632 37.8596 32.981 37.3316 32.981 36.7812C32.981 36.2308 32.7632 35.7028 32.3751 35.3125L22.0626 24.8958L32.3751 14.5833C32.7632 14.193 32.981 13.6649 32.981 13.1146C32.981 12.5642 32.7632 12.0361 32.3751 11.6458C32.1822 11.449 31.9521 11.2923 31.6982 11.1851C31.4443 11.0778 31.1716 11.0219 30.896 11.0208C30.6203 11.0219 30.3477 11.0778 30.0938 11.1851C29.8398 11.2923 29.6098 11.449 29.4168 11.6458L17.6251 23.4166C17.4137 23.6117 17.2449 23.8485 17.1295 24.112C17.014 24.3756 16.9544 24.6602 16.9544 24.9479C16.9544 25.2356 17.014 25.5202 17.1295 25.7837C17.2449 26.0473 17.4137 26.284 17.6251 26.4791Z" fill="black"/>
</svg>
