<svg width="50" height="50" viewBox="0 0 50 50" fill="none" xmlns="http://www.w3.org/2000/svg">
<path d="M32.3749 23.5209L20.5832 11.75C20.3895 11.5548 20.1591 11.3998 19.9052 11.294C19.6514 11.1882 19.3791 11.1338 19.104 11.1338C18.829 11.1338 18.5567 11.1882 18.3028 11.294C18.049 11.3998 17.8185 11.5548 17.6249 11.75C17.2368 12.1404 17.019 12.6684 17.019 13.2188C17.019 13.7692 17.2368 14.2972 17.6249 14.6875L27.9374 25.1042L17.6249 35.4167C17.2368 35.807 17.019 36.3351 17.019 36.8855C17.019 37.4358 17.2368 37.9639 17.6249 38.3542C17.8178 38.5511 18.0479 38.7077 18.3018 38.8149C18.5557 38.9222 18.8284 38.9781 19.104 38.9792C19.3797 38.9781 19.6523 38.9222 19.9062 38.8149C20.1602 38.7077 20.3902 38.5511 20.5832 38.3542L32.3749 26.5834C32.5863 26.3883 32.7551 26.1515 32.8705 25.888C32.986 25.6244 33.0456 25.3398 33.0456 25.0521C33.0456 24.7644 32.986 24.4798 32.8705 24.2163C32.7551 23.9527 32.5863 23.716 32.3749 23.5209Z" fill="black"/>
</svg>
